<svg width="40" height="40" viewBox="0 0 40 40" fill="currentColor" xmlns="http://www.w3.org/2000/svg">
<path d="M31.6667 5.00049C32.5507 5.00049 33.3986 5.35168 34.0237 5.9768C34.6488 6.60192 35 7.44977 35 8.33382V31.6672C35 32.5512 34.6488 33.3991 34.0237 34.0242C33.3986 34.6493 32.5507 35.0005 31.6667 35.0005H8.33333C7.44928 35.0005 6.60143 34.6493 5.97631 34.0242C5.35119 33.3991 5 32.5512 5 31.6672V8.33382C5 7.44977 5.35119 6.60192 5.97631 5.9768C6.60143 5.35168 7.44928 5.00049 8.33333 5.00049H31.6667ZM30.8333 30.8338V22.0005C30.8333 20.5595 30.2609 19.1775 29.2419 18.1585C28.223 17.1396 26.841 16.5672 25.4 16.5672C23.9833 16.5672 22.3333 17.4338 21.5333 18.7338V16.8838H16.8833V30.8338H21.5333V22.6172C21.5333 21.3338 22.5667 20.2838 23.85 20.2838C24.4688 20.2838 25.0623 20.5297 25.4999 20.9672C25.9375 21.4048 26.1833 21.9983 26.1833 22.6172V30.8338H30.8333ZM11.4667 14.2672C12.2093 14.2672 12.9215 13.9722 13.4466 13.4471C13.9717 12.922 14.2667 12.2098 14.2667 11.4672C14.2667 9.91715 13.0167 8.65049 11.4667 8.65049C10.7196 8.65049 10.0032 8.94724 9.47498 9.47547C8.94675 10.0037 8.65 10.7201 8.65 11.4672C8.65 13.0172 9.91667 14.2672 11.4667 14.2672ZM13.7833 30.8338V16.8838H9.16667V30.8338H13.7833Z" fill="currentColor"/>
</svg>
